<?xml version="1.0" encoding="UTF-8" standalone="no"?>
<!-- Created with Inkscape (http://www.inkscape.org/) -->

<svg
   width="60.959999mm"
   height="128.5mm"
   viewBox="0 0 60.960004 128.50002"
   version="1.1"
   id="svg8"
   inkscape:version="1.3.2 (091e20e, 2023-11-25)"
   sodipodi:docname="Chair_Snare.svg"
   xmlns:inkscape="http://www.inkscape.org/namespaces/inkscape"
   xmlns:sodipodi="http://sodipodi.sourceforge.net/DTD/sodipodi-0.dtd"
   xmlns="http://www.w3.org/2000/svg"
   xmlns:svg="http://www.w3.org/2000/svg"
   xmlns:rdf="http://www.w3.org/1999/02/22-rdf-syntax-ns#"
   xmlns:cc="http://creativecommons.org/ns#"
   xmlns:dc="http://purl.org/dc/elements/1.1/">
  <defs
     id="defs2" />
  <sodipodi:namedview
     id="base"
     pagecolor="#ffffff"
     bordercolor="#666666"
     borderopacity="1.0"
     inkscape:pageopacity="0.0"
     inkscape:pageshadow="2"
     inkscape:zoom="0.88264172"
     inkscape:cx="101.40015"
     inkscape:cy="280.40823"
     inkscape:document-units="mm"
     inkscape:current-layer="layer1"
     showgrid="false"
     units="mm"
     inkscape:snap-bbox="true"
     inkscape:snap-page="true"
     inkscape:bbox-nodes="false"
     inkscape:snap-bbox-edge-midpoints="false"
     inkscape:window-width="1472"
     inkscape:window-height="820"
     inkscape:window-x="0"
     inkscape:window-y="37"
     inkscape:window-maximized="0"
     inkscape:snap-bbox-midpoints="true"
     inkscape:snap-nodes="false"
     inkscape:showpageshadow="2"
     inkscape:pagecheckerboard="0"
     inkscape:deskcolor="#d1d1d1" />
  <metadata
     id="metadata5">
    <rdf:RDF>
      <cc:Work
         rdf:about="">
        <dc:format>image/svg+xml</dc:format>
        <dc:type
           rdf:resource="http://purl.org/dc/dcmitype/StillImage" />
      </cc:Work>
    </rdf:RDF>
  </metadata>
  <g
     inkscape:label="Layer 1"
     inkscape:groupmode="layer"
     id="layer1"
     transform="translate(0,-168.49998)">
    <rect
       style="display:inline;opacity:1;vector-effect:none;fill:#e6e6e6;fill-opacity:1;fill-rule:evenodd;stroke:none;stroke-width:0.918331;stroke-linecap:butt;stroke-linejoin:miter;stroke-miterlimit:4;stroke-dasharray:none;stroke-dashoffset:0;stroke-opacity:1;paint-order:normal"
       id="rect420"
       width="60.959999"
       height="128.5"
       x="0.13363476"
       y="168.93338" />
    <path
       d="m 26.837678,175.41532 q 0,0.17984 -0.08475,0.35554 -0.08268,0.1757 -0.233577,0.29765 -0.165364,0.1323 -0.386539,0.20671 -0.219108,0.0744 -0.529167,0.0744 -0.332796,0 -0.599446,-0.062 -0.264583,-0.062 -0.539501,-0.18397 v -0.51263 h 0.02894 q 0.233577,0.19431 0.539501,0.29973 0.305924,0.10542 0.574642,0.10542 0.380338,0 0.591177,-0.14263 0.212907,-0.14263 0.212907,-0.38034 0,-0.20464 -0.101286,-0.30179 -0.09922,-0.0971 -0.303857,-0.15089 -0.155029,-0.0413 -0.33693,-0.0682 -0.179834,-0.0269 -0.382405,-0.0682 -0.409277,-0.0868 -0.607714,-0.29559 -0.196371,-0.21084 -0.196371,-0.54777 0,-0.38654 0.326595,-0.63252 0.326595,-0.24804 0.828889,-0.24804 0.324528,0 0.595312,0.062 0.270785,0.062 0.479557,0.15296 v 0.48369 h -0.02894 q -0.175699,-0.14883 -0.46302,-0.24598 -0.285254,-0.0992 -0.584977,-0.0992 -0.328662,0 -0.529166,0.13643 -0.198437,0.13642 -0.198437,0.3514 0,0.19223 0.09922,0.30179 0.09922,0.10955 0.349333,0.16743 0.132291,0.0289 0.376204,0.0703 0.243912,0.0413 0.413411,0.0847 0.343131,0.0909 0.516764,0.27492 0.173633,0.18397 0.173633,0.51469 z m 3.005498,0.8785 h -0.506428 l -1.459341,-2.75331 v 2.75331 h -0.382406 v -3.07784 h 0.634586 l 1.331184,2.51354 v -2.51354 h 0.382405 z m 3.245278,0 h -0.436149 l -0.30179,-0.85782 h -1.331184 l -0.30179,0.85782 h -0.415478 l 1.120344,-3.07784 h 0.545703 z m -0.86403,-1.20922 -0.539501,-1.51102 -0.541569,1.51102 z m 3.877797,1.20922 h -0.531233 l -1.029394,-1.22369 h -0.576709 v 1.22369 h -0.409277 v -3.07784 h 0.861963 q 0.279052,0 0.465087,0.0372 0.186035,0.0351 0.334863,0.12816 0.167432,0.10542 0.260449,0.26665 0.09508,0.15917 0.09508,0.40515 0,0.33279 -0.167432,0.5581 -0.167431,0.22324 -0.460953,0.33693 z m -0.957047,-2.21175 q 0,-0.13229 -0.04754,-0.23357 -0.04547,-0.10336 -0.152962,-0.17364 -0.08888,-0.0599 -0.21084,-0.0827 -0.121956,-0.0248 -0.287321,-0.0248 h -0.481624 v 1.16168 h 0.413412 q 0.194303,0 0.338997,-0.0331 0.144694,-0.0351 0.245979,-0.12816 0.09302,-0.0868 0.136426,-0.19844 0.04547,-0.11368 0.04547,-0.28732 z m 3.381703,2.21175 h -2.027781 v -3.07784 h 2.027781 v 0.3638 h -1.618504 v 0.84336 h 1.618504 v 0.3638 h -1.618504 v 1.14308 h 1.618504 z"
       id="text1"
       style="font-size:4.23333px;-inkscape-font-specification:sans-serif;text-align:center;text-anchor:middle;stroke-width:0.264583"
       aria-label="SNARE" />
    <path
       d="m 4.4629418,191.41836 h -0.916396 v 2.26171 H 3.2054811 v -2.26171 h -0.916396 v -0.30317 H 4.4629418 Z M 5.63772,192.1091 h -0.017225 q -0.072347,-0.0172 -0.141249,-0.0241 -0.067179,-0.009 -0.160197,-0.009 -0.1498618,0 -0.2893882,0.0672 -0.1395265,0.0654 -0.2687177,0.17053 v 1.36598 H 4.4371035 v -1.92409 h 0.3238391 v 0.28422 q 0.1929255,-0.15503 0.3393422,-0.21876 0.1481392,-0.0655 0.301446,-0.0655 0.084405,0 0.122301,0.005 0.037896,0.003 0.1136882,0.0155 z m 0.6528462,-0.67523 H 5.9253858 v -0.3359 h 0.3651804 z m -0.020671,2.2462 H 5.9460564 v -1.92409 h 0.3238392 z m 2.2014174,-0.21876 q 0,0.4892 -0.2222088,0.7183 -0.2222088,0.2291 -0.6838519,0.2291 -0.1533069,0 -0.2997235,-0.0224 -0.1446941,-0.0207 -0.2859431,-0.0603 v -0.33072 h 0.017225 q 0.079237,0.031 0.2514922,0.0758 0.1722549,0.0465 0.3445097,0.0465 0.1653647,0 0.2738853,-0.0396 0.1085206,-0.0396 0.1688098,-0.11025 0.060289,-0.0672 0.086127,-0.16191 0.025838,-0.0948 0.025838,-0.21188 v -0.1757 q -0.1464167,0.11713 -0.2807755,0.1757 -0.1326362,0.0568 -0.3393421,0.0568 -0.3445098,0 -0.5477705,-0.24805 -0.2015383,-0.24977 -0.2015383,-0.7028 0,-0.24805 0.068902,-0.42719 0.070625,-0.18087 0.1912029,-0.31178 0.1119657,-0.12231 0.2721627,-0.18949 0.1601971,-0.0689 0.3186716,-0.0689 0.1670872,0 0.2790529,0.0344 0.1136882,0.0327 0.2394343,0.10163 l 0.020671,-0.0827 H 8.471313 Z m -0.3238392,-0.31006 v -1.04904 q -0.1291912,-0.0586 -0.2411569,-0.0827 -0.1102431,-0.0258 -0.2204862,-0.0258 -0.2669951,0 -0.4203019,0.17915 -0.1533069,0.17914 -0.1533069,0.52021 0,0.32384 0.1136882,0.49092 0.1136883,0.16709 0.3772382,0.16709 0.141249,0 0.2824981,-0.0534 0.1429715,-0.0551 0.2618274,-0.14641 z m 4.0910532,-0.20326 q 0,0.14986 -0.07062,0.29627 -0.0689,0.14642 -0.194648,0.24805 -0.137804,0.11024 -0.322117,0.17226 -0.18259,0.062 -0.440972,0.062 -0.277331,0 -0.499539,-0.0517 -0.220487,-0.0517 -0.449586,-0.15331 v -0.42719 h 0.02412 q 0.194648,0.16192 0.449585,0.24977 0.254938,0.0879 0.478869,0.0879 0.316949,0 0.492649,-0.11885 0.177422,-0.11886 0.177422,-0.31695 0,-0.17054 -0.08441,-0.2515 -0.08268,-0.081 -0.253214,-0.12574 -0.129191,-0.0344 -0.280776,-0.0568 -0.149861,-0.0224 -0.318671,-0.0568 -0.341065,-0.0724 -0.50643,-0.24632 -0.163642,-0.1757 -0.163642,-0.45648 0,-0.32212 0.272163,-0.5271 0.272163,-0.20671 0.690742,-0.20671 0.27044,0 0.496094,0.0517 0.225654,0.0517 0.399631,0.12747 v 0.40308 h -0.02412 q -0.146417,-0.12403 -0.385851,-0.20499 -0.237712,-0.0827 -0.487481,-0.0827 -0.273886,0 -0.440973,0.11369 -0.165365,0.11369 -0.165365,0.29283 0,0.1602 0.08268,0.25149 0.08268,0.0913 0.29111,0.13953 0.110244,0.0241 0.313504,0.0586 0.203261,0.0345 0.34451,0.0706 0.285943,0.0758 0.430637,0.2291 0.144694,0.15331 0.144694,0.42892 z m 2.130794,0.73208 h -0.32384 v -1.09554 q 0,-0.13264 -0.0155,-0.24805 -0.0155,-0.11713 -0.05684,-0.18259 -0.04306,-0.0724 -0.124023,-0.1068 -0.08096,-0.0362 -0.210151,-0.0362 -0.132636,0 -0.27733,0.0655 -0.144695,0.0654 -0.277331,0.16708 v 1.43661 H 12.76046 v -2.68029 h 0.323839 v 0.9698 q 0.151584,-0.12575 0.313504,-0.19637 0.16192,-0.0706 0.332452,-0.0706 0.311781,0 0.475423,0.18776 0.163643,0.18776 0.163643,0.54088 z m 2.118734,0 h -0.322116 v -0.20498 q -0.04306,0.0293 -0.117134,0.0827 -0.07235,0.0517 -0.141249,0.0827 -0.08096,0.0396 -0.186035,0.0655 -0.105076,0.0276 -0.246325,0.0276 -0.260104,0 -0.440972,-0.17226 -0.180868,-0.17225 -0.180868,-0.43925 0,-0.21876 0.09302,-0.35312 0.09474,-0.13608 0.268718,-0.2136 0.1757,-0.0775 0.422024,-0.10507 0.246325,-0.0276 0.528823,-0.0413 v -0.05 q 0,-0.11024 -0.03962,-0.18259 -0.0379,-0.0723 -0.110243,-0.11368 -0.0689,-0.0396 -0.165365,-0.0534 -0.09646,-0.0138 -0.201538,-0.0138 -0.127469,0 -0.284221,0.0344 -0.156752,0.0327 -0.323839,0.0965 h -0.01722 v -0.32901 q 0.09474,-0.0258 0.273885,-0.0568 0.179145,-0.031 0.353122,-0.031 0.203261,0 0.353123,0.0344 0.151584,0.0327 0.261827,0.11369 0.108521,0.0792 0.165365,0.20499 0.05684,0.12574 0.05684,0.31178 z m -0.322116,-0.4737 v -0.53571 q -0.14814,0.009 -0.349678,0.0258 -0.199816,0.0172 -0.316949,0.05 -0.139526,0.0396 -0.225654,0.12402 -0.08613,0.0827 -0.08613,0.2291 0,0.16536 0.09991,0.24977 0.09991,0.0827 0.304891,0.0827 0.170532,0 0.311781,-0.0654 0.141249,-0.0672 0.261828,-0.1602 z m 2.638945,-0.5116 q 0,0.23427 -0.06718,0.42892 -0.06718,0.19292 -0.18948,0.32728 -0.113688,0.12747 -0.268718,0.19809 -0.153307,0.0689 -0.325561,0.0689 -0.149862,0 -0.272163,-0.0327 -0.120579,-0.0327 -0.246325,-0.10163 v 0.80615 h -0.323839 v -2.63378 h 0.323839 v 0.20154 q 0.129191,-0.10852 0.289389,-0.18087 0.161919,-0.0741 0.344509,-0.0741 0.347955,0 0.540881,0.26355 0.194648,0.26183 0.194648,0.72864 z m -0.334175,0.009 q 0,-0.34795 -0.118856,-0.52021 -0.118856,-0.17225 -0.36518,-0.17225 -0.139527,0 -0.280776,0.0603 -0.141249,0.0603 -0.27044,0.15847 v 1.09038 q 0.137804,0.062 0.235989,0.0844 0.09991,0.0224 0.225654,0.0224 0.270441,0 0.422025,-0.18259 0.151584,-0.18259 0.151584,-0.54088 z m 2.449465,0.0482 h -1.417658 q 0,0.17742 0.0534,0.31005 0.0534,0.13092 0.146417,0.21532 0.08957,0.0827 0.211873,0.12403 0.124024,0.0413 0.272163,0.0413 0.19637,0 0.394463,-0.0775 0.199816,-0.0792 0.284221,-0.15503 h 0.01723 v 0.35313 q -0.163643,0.0689 -0.334175,0.11541 -0.170532,0.0465 -0.35829,0.0465 -0.478869,0 -0.747586,-0.25839 -0.268718,-0.2601 -0.268718,-0.73725 0,-0.47198 0.25666,-0.74931 0.258382,-0.27733 0.678684,-0.27733 0.389296,0 0.599447,0.22738 0.211874,0.22738 0.211874,0.64596 z m -0.315227,-0.24805 q -0.0017,-0.25494 -0.129191,-0.39447 -0.125746,-0.13952 -0.384128,-0.13952 -0.260105,0 -0.415135,0.1533 -0.153307,0.15331 -0.173977,0.38069 z"
       id="text2"
       style="font-size:3.52778px;-inkscape-font-specification:sans-serif;text-align:center;text-anchor:middle;stroke-width:0.264583"
       aria-label="Trig Shape" />
    <path
       d="m 30.234763,193.97984 h -0.323838 v -0.20153 q -0.139526,0.12057 -0.29111,0.18775 -0.151584,0.0672 -0.329006,0.0672 -0.344509,0 -0.547769,-0.26527 -0.201538,-0.26527 -0.201538,-0.73553 0,-0.2446 0.0689,-0.4358 0.07062,-0.1912 0.18948,-0.32556 0.117133,-0.13091 0.272162,-0.19982 0.156751,-0.0689 0.323838,-0.0689 0.151584,0 0.268717,0.0327 0.117133,0.031 0.246324,0.0982 v -0.83372 h 0.323838 z m -0.323838,-0.4737 v -1.10415 q -0.130914,-0.0586 -0.234266,-0.081 -0.103353,-0.0224 -0.225654,-0.0224 -0.272162,0 -0.423745,0.18948 -0.151584,0.18948 -0.151584,0.53743 0,0.34279 0.117133,0.52193 0.117133,0.17743 0.375514,0.17743 0.137804,0 0.279052,-0.0603 0.141249,-0.062 0.26355,-0.15848 z m 2.509746,0.4737 h -1.38837 v -0.26182 h 0.533988 v -1.7191 h -0.533988 v -0.23427 q 0.10852,0 0.232543,-0.0172 0.124023,-0.019 0.187758,-0.0534 0.07924,-0.0431 0.124023,-0.10852 0.04651,-0.0672 0.0534,-0.17915 h 0.266994 v 2.31166 h 0.523653 z"
       id="text3"
       style="font-size:3.52777px;-inkscape-font-specification:sans-serif;text-align:center;text-anchor:middle;stroke-width:0.264583"
       aria-label="d1" />
    <path
       d="m 47.920781,194.2796 h -0.323838 v -0.20154 q -0.139526,0.12058 -0.29111,0.18776 -0.151584,0.0672 -0.329006,0.0672 -0.344509,0 -0.547769,-0.26527 -0.201538,-0.26527 -0.201538,-0.73553 0,-0.2446 0.0689,-0.4358 0.07062,-0.1912 0.18948,-0.32556 0.117133,-0.13091 0.272162,-0.19982 0.156751,-0.0689 0.323838,-0.0689 0.151584,0 0.268717,0.0327 0.117133,0.031 0.246324,0.0982 v -0.83371 h 0.323838 z m -0.323838,-0.4737 v -1.10415 q -0.130914,-0.0586 -0.234266,-0.081 -0.103353,-0.0224 -0.225654,-0.0224 -0.272162,0 -0.423745,0.18948 -0.151584,0.18948 -0.151584,0.53743 0,0.34279 0.117133,0.52193 0.117133,0.17743 0.375514,0.17743 0.137804,0 0.279052,-0.0603 0.141249,-0.062 0.26355,-0.15848 z m 2.635492,-0.34106 q 0,0.17914 -0.06546,0.34279 -0.06546,0.16364 -0.179144,0.2756 -0.124023,0.12058 -0.296278,0.18604 -0.170532,0.0637 -0.396185,0.0637 -0.21015,0 -0.404798,-0.0448 -0.194647,-0.0431 -0.329006,-0.10507 v -0.36346 h 0.02412 q 0.141249,0.0896 0.330728,0.15331 0.18948,0.062 0.37207,0.062 0.1223,0 0.235988,-0.0344 0.115411,-0.0344 0.204983,-0.12058 0.07579,-0.0741 0.113688,-0.17742 0.03962,-0.10335 0.03962,-0.23943 0,-0.13264 -0.04651,-0.22393 -0.04479,-0.0913 -0.125746,-0.14642 -0.08957,-0.0655 -0.218763,-0.0913 -0.127468,-0.0276 -0.285942,-0.0276 -0.151584,0 -0.292833,0.0207 -0.139526,0.0207 -0.241156,0.0413 v -1.3212 h 1.543399 v 0.30145 h -1.210948 v 0.68213 q 0.07407,-0.007 0.151584,-0.0103 0.07751,-0.003 0.134358,-0.003 0.208428,0 0.36518,0.0362 0.156751,0.0344 0.287665,0.12402 0.137803,0.0947 0.213595,0.2446 0.07579,0.14987 0.07579,0.37552 z"
       id="text4"
       style="font-size:3.52777px;-inkscape-font-specification:sans-serif;text-align:center;text-anchor:middle;stroke-width:0.264583"
       aria-label="d5" />
    <path
       d="m 6.9709463,211.94838 q -0.091295,0.0241 -0.1998151,0.0396 -0.1067978,0.0155 -0.1912024,0.0155 -0.294555,0 -0.4478615,-0.15847 -0.1533064,-0.15848 -0.1533064,-0.50815 v -1.02319 H 5.7599978 v -0.27216 h 0.2187631 v -0.55294 h 0.3238383 v 0.55294 h 0.6683471 v 0.27216 H 6.3025992 v 0.87677 q 0,0.15159 0.00689,0.23771 0.00689,0.0844 0.048231,0.15848 0.037896,0.0689 0.1033526,0.10163 0.067179,0.031 0.2032602,0.031 0.079237,0 0.1653642,-0.0224 0.086127,-0.0241 0.1240232,-0.0396 h 0.017225 z m 1.9998735,0.0172 H 8.6469815 v -1.09554 q 0,-0.13264 -0.015503,-0.24805 -0.015503,-0.11713 -0.056844,-0.18259 -0.043064,-0.0723 -0.1240232,-0.10679 -0.08096,-0.0362 -0.2101504,-0.0362 -0.1326358,0 -0.2773295,0.0655 -0.1446937,0.0654 -0.2773296,0.16709 v 1.4366 H 7.3619637 v -2.68028 H 7.685802 v 0.96979 q 0.1515839,-0.12575 0.313503,-0.19637 0.1619191,-0.0706 0.332451,-0.0706 0.3117804,0 0.4754221,0.18775 0.1636417,0.18776 0.1636417,0.54088 z m 2.2341392,-0.92845 H 9.7873056 q 0,0.17742 0.053399,0.31005 0.053399,0.13092 0.1464162,0.21532 0.089572,0.0827 0.2118733,0.12402 0.124023,0.0413 0.272162,0.0413 0.19637,0 0.394462,-0.0775 0.199815,-0.0792 0.28422,-0.15503 h 0.01722 v 0.35312 q -0.163641,0.0689 -0.334173,0.11541 -0.170532,0.0465 -0.358289,0.0465 -0.4788675,0 -0.7475844,-0.25838 -0.2687169,-0.2601 -0.2687169,-0.73725 0,-0.47197 0.2566591,-0.7493 0.2583816,-0.27733 0.6786822,-0.27733 0.389295,0 0.599445,0.22737 0.211873,0.22738 0.211873,0.64596 z m -0.315225,-0.24805 q -0.0017,-0.25494 -0.129191,-0.39446 -0.125746,-0.13953 -0.384127,-0.13953 -0.260104,0 -0.4151334,0.15331 -0.1533064,0.1533 -0.173977,0.38068 z m 1.805226,1.15927 q -0.0913,0.0241 -0.199816,0.0396 -0.106797,0.0155 -0.191202,0.0155 -0.294555,0 -0.447861,-0.15847 -0.153307,-0.15848 -0.153307,-0.50815 v -1.02319 h -0.218763 v -0.27216 h 0.218763 v -0.55294 h 0.323839 v 0.55294 h 0.668347 v 0.27216 h -0.668347 v 0.87677 q 0,0.15159 0.0069,0.23771 0.0069,0.0844 0.04823,0.15848 0.0379,0.0689 0.103353,0.10163 0.06718,0.031 0.20326,0.031 0.07924,0 0.165364,-0.0224 0.08613,-0.0241 0.124023,-0.0396 h 0.01723 z m 1.886185,0.0172 h -0.322116 v -0.20499 q -0.04306,0.0293 -0.117133,0.0827 -0.07235,0.0517 -0.141248,0.0827 -0.08096,0.0396 -0.186035,0.0654 -0.105075,0.0276 -0.246324,0.0276 -0.260104,0 -0.440971,-0.17226 -0.180867,-0.17225 -0.180867,-0.43925 0,-0.21876 0.09302,-0.35312 0.09474,-0.13608 0.268717,-0.21359 0.1757,-0.0775 0.422023,-0.10508 0.246324,-0.0276 0.528821,-0.0413 v -0.0499 q 0,-0.11025 -0.03962,-0.18259 -0.0379,-0.0724 -0.110243,-0.11369 -0.0689,-0.0396 -0.165364,-0.0534 -0.09646,-0.0138 -0.201538,-0.0138 -0.127468,0 -0.28422,0.0345 -0.156751,0.0327 -0.323838,0.0965 h -0.01722 v -0.329 q 0.09474,-0.0258 0.273884,-0.0569 0.179145,-0.031 0.353122,-0.031 0.20326,0 0.353121,0.0344 0.151584,0.0327 0.261827,0.11369 0.10852,0.0792 0.165364,0.20498 0.05684,0.12574 0.05684,0.31178 z m -0.322116,-0.4737 v -0.53571 q -0.148138,0.009 -0.349676,0.0258 -0.199815,0.0172 -0.316948,0.05 -0.139526,0.0396 -0.225653,0.12402 -0.08613,0.0827 -0.08613,0.2291 0,0.16536 0.09991,0.24977 0.09991,0.0827 0.30489,0.0827 0.170532,0 0.311781,-0.0655 0.141248,-0.0672 0.261826,-0.16019 z m 2.494245,0.4737 h -1.388371 v -0.26183 h 0.533989 v -1.7191 h -0.533989 v -0.23426 q 0.10852,0 0.232544,-0.0172 0.124023,-0.019 0.187757,-0.0534 0.07924,-0.0431 0.124023,-0.10852 0.04651,-0.0672 0.0534,-0.17914 h 0.266994 v 2.31165 h 0.523654 z"
       id="text5"
       style="font-size:3.52777px;-inkscape-font-specification:sans-serif;text-align:center;text-anchor:middle;stroke-width:0.264583"
       aria-label="theta1" />
    <path
       d="m 26.455542,211.9484 q -0.0913,0.0241 -0.199816,0.0396 -0.106797,0.0155 -0.191202,0.0155 -0.294555,0 -0.447861,-0.15848 -0.153307,-0.15847 -0.153307,-0.50815 v -1.02319 h -0.218763 v -0.27216 h 0.218763 v -0.55294 h 0.323838 v 0.55294 h 0.668348 v 0.27216 h -0.668348 v 0.87678 q 0,0.15158 0.0069,0.23771 0.0069,0.0844 0.04823,0.15847 0.0379,0.0689 0.103353,0.10163 0.06718,0.031 0.20326,0.031 0.07924,0 0.165364,-0.0224 0.08613,-0.0241 0.124023,-0.0396 h 0.01723 z m 1.999873,0.0172 h -0.323838 v -1.09554 q 0,-0.13263 -0.0155,-0.24804 -0.0155,-0.11714 -0.05684,-0.18259 -0.04306,-0.0724 -0.124023,-0.1068 -0.08096,-0.0362 -0.210151,-0.0362 -0.132635,0 -0.277329,0.0654 -0.144694,0.0655 -0.27733,0.16709 v 1.4366 h -0.323838 v -2.68028 h 0.323838 v 0.9698 q 0.151584,-0.12575 0.313503,-0.19637 0.161919,-0.0706 0.332451,-0.0706 0.311781,0 0.475422,0.18776 0.163642,0.18776 0.163642,0.54088 z m 2.23414,-0.92845 h -1.417654 q 0,0.17742 0.0534,0.31006 0.0534,0.13091 0.146416,0.21532 0.08957,0.0827 0.211873,0.12402 0.124023,0.0413 0.272162,0.0413 0.19637,0 0.394462,-0.0775 0.199816,-0.0792 0.28422,-0.15503 h 0.01723 v 0.35312 q -0.163642,0.0689 -0.334174,0.11541 -0.170532,0.0465 -0.358289,0.0465 -0.478867,0 -0.747584,-0.25838 -0.268717,-0.26011 -0.268717,-0.73725 0,-0.47198 0.256659,-0.74931 0.258382,-0.27733 0.678682,-0.27733 0.389295,0 0.599446,0.22738 0.211873,0.22737 0.211873,0.64595 z m -0.315226,-0.24805 q -0.0017,-0.25493 -0.129191,-0.39446 -0.125745,-0.13952 -0.384127,-0.13952 -0.260104,0 -0.415133,0.1533 -0.153307,0.15331 -0.173977,0.38068 z m 1.805226,1.15928 q -0.0913,0.0241 -0.199815,0.0396 -0.106798,0.0155 -0.191203,0.0155 -0.294555,0 -0.447861,-0.15848 -0.153306,-0.15847 -0.153306,-0.50815 v -1.02319 h -0.218764 v -0.27216 h 0.218764 v -0.55294 h 0.323838 v 0.55294 h 0.668347 v 0.27216 h -0.668347 v 0.87678 q 0,0.15158 0.0069,0.23771 0.0069,0.0844 0.04823,0.15847 0.0379,0.0689 0.103353,0.10163 0.06718,0.031 0.20326,0.031 0.07924,0 0.165364,-0.0224 0.08613,-0.0241 0.124023,-0.0396 h 0.01723 z m 1.886185,0.0172 h -0.322115 v -0.20498 q -0.04306,0.0293 -0.117133,0.0827 -0.07235,0.0517 -0.141249,0.0827 -0.08096,0.0396 -0.186035,0.0655 -0.105075,0.0276 -0.246323,0.0276 -0.260105,0 -0.440972,-0.17225 -0.180867,-0.17226 -0.180867,-0.43925 0,-0.21877 0.09302,-0.35312 0.09474,-0.13608 0.268716,-0.2136 0.1757,-0.0775 0.422024,-0.10507 0.246323,-0.0276 0.528821,-0.0413 v -0.0499 q 0,-0.11024 -0.03962,-0.18259 -0.0379,-0.0724 -0.110243,-0.11369 -0.0689,-0.0396 -0.165364,-0.0534 -0.09646,-0.0138 -0.201538,-0.0138 -0.127468,0 -0.284219,0.0344 -0.156752,0.0327 -0.323839,0.0965 h -0.01722 v -0.32901 q 0.09474,-0.0258 0.273885,-0.0568 0.179144,-0.031 0.353121,-0.031 0.20326,0 0.353122,0.0344 0.151583,0.0327 0.261826,0.11369 0.10852,0.0792 0.165364,0.20498 0.05684,0.12575 0.05684,0.31178 z m -0.322115,-0.4737 v -0.53571 q -0.148139,0.009 -0.349677,0.0258 -0.199815,0.0172 -0.316948,0.05 -0.139526,0.0396 -0.225653,0.12403 -0.08613,0.0827 -0.08613,0.22909 0,0.16537 0.09991,0.24977 0.09991,0.0827 0.304891,0.0827 0.170531,0 0.31178,-0.0655 0.141249,-0.0672 0.261827,-0.1602 z m 2.699227,-0.24804 h -0.380683 v 0.72174 h -0.330728 v -0.72174 h -1.228174 v -0.39619 l 1.241954,-1.44694 h 0.316948 v 1.56752 h 0.380683 z m -0.711411,-0.27561 v -1.15755 l -0.993908,1.15755 z"
       id="text6"
       style="font-size:3.52777px;-inkscape-font-specification:sans-serif;text-align:center;text-anchor:middle;stroke-width:0.264583"
       aria-label="theta4" />
    <path
       d="m 30.234763,253.93245 h -0.323838 v -0.20154 q -0.139526,0.12058 -0.29111,0.18776 -0.151584,0.0672 -0.329006,0.0672 -0.344509,0 -0.547769,-0.26527 -0.201538,-0.26528 -0.201538,-0.73553 0,-0.2446 0.0689,-0.4358 0.07062,-0.19121 0.18948,-0.32556 0.117133,-0.13092 0.272162,-0.19982 0.156751,-0.0689 0.323838,-0.0689 0.151584,0 0.268717,0.0327 0.117133,0.031 0.246324,0.0982 v -0.83371 h 0.323838 z m -0.323838,-0.4737 v -1.10415 q -0.130914,-0.0586 -0.234266,-0.081 -0.103353,-0.0224 -0.225654,-0.0224 -0.272162,0 -0.423745,0.18948 -0.151584,0.18948 -0.151584,0.53743 0,0.34279 0.117133,0.52193 0.117133,0.17742 0.375514,0.17742 0.137804,0 0.279052,-0.0603 0.141249,-0.062 0.26355,-0.15847 z m 2.509746,0.4737 h -1.38837 v -0.26183 h 0.533988 v -1.7191 h -0.533988 v -0.23426 q 0.10852,0 0.232543,-0.0172 0.124023,-0.0189 0.187758,-0.0534 0.07924,-0.0431 0.124023,-0.10852 0.04651,-0.0672 0.0534,-0.17914 h 0.266994 v 2.31165 h 0.523653 z"
       id="text10"
       style="font-size:3.52777px;-inkscape-font-specification:sans-serif;text-align:center;text-anchor:middle;stroke-width:0.264583"
       aria-label="d1" />
    <path
       d="m 48.520306,253.93243 h -0.323838 v -0.20153 q -0.139526,0.12057 -0.29111,0.18775 -0.151584,0.0672 -0.329006,0.0672 -0.344509,0 -0.547769,-0.26527 -0.201537,-0.26527 -0.201537,-0.73553 0,-0.2446 0.0689,-0.4358 0.07062,-0.1912 0.18948,-0.32556 0.117133,-0.13091 0.272162,-0.19981 0.156752,-0.0689 0.323838,-0.0689 0.151584,0 0.268717,0.0327 0.117133,0.031 0.246324,0.0982 v -0.83371 h 0.323838 z m -0.323838,-0.4737 v -1.10415 q -0.130913,-0.0586 -0.234266,-0.081 -0.103353,-0.0224 -0.225653,-0.0224 -0.272162,0 -0.423746,0.18948 -0.151584,0.18948 -0.151584,0.53743 0,0.34279 0.117133,0.52194 0.117133,0.17742 0.375515,0.17742 0.137803,0 0.279052,-0.0603 0.141248,-0.062 0.263549,-0.15848 z m 2.635492,-0.34106 q 0,0.17915 -0.06546,0.34279 -0.06546,0.16364 -0.179145,0.2756 -0.124023,0.12058 -0.296277,0.18604 -0.170532,0.0637 -0.396186,0.0637 -0.21015,0 -0.404797,-0.0448 -0.194648,-0.0431 -0.329006,-0.10508 v -0.36346 h 0.02412 q 0.141249,0.0896 0.330729,0.15331 0.18948,0.062 0.372069,0.062 0.122301,0 0.235989,-0.0344 0.11541,-0.0344 0.204983,-0.12058 0.07579,-0.0741 0.113687,-0.17742 0.03962,-0.10335 0.03962,-0.23943 0,-0.13264 -0.04651,-0.22393 -0.04479,-0.0913 -0.125745,-0.14642 -0.08957,-0.0655 -0.218764,-0.0913 -0.127468,-0.0276 -0.285942,-0.0276 -0.151584,0 -0.292832,0.0207 -0.139526,0.0207 -0.241156,0.0413 v -1.32119 h 1.543399 v 0.30144 h -1.210948 v 0.68213 q 0.07407,-0.007 0.151583,-0.0103 0.07751,-0.003 0.134359,-0.003 0.208428,0 0.365179,0.0362 0.156752,0.0345 0.287665,0.12402 0.137804,0.0947 0.213595,0.24461 0.07579,0.14986 0.07579,0.37551 z"
       id="text11"
       style="font-size:3.52777px;-inkscape-font-specification:sans-serif;text-align:center;text-anchor:middle;stroke-width:0.264583"
       aria-label="d5" />
    <path
       d="m 6.9709463,268.00408 q -0.091295,0.0241 -0.1998151,0.0396 -0.1067978,0.0155 -0.1912024,0.0155 -0.294555,0 -0.4478615,-0.15848 -0.1533064,-0.15847 -0.1533064,-0.50815 v -1.02319 H 5.7599978 v -0.27216 h 0.2187631 v -0.55294 h 0.3238383 v 0.55294 h 0.6683471 v 0.27216 H 6.3025992 v 0.87678 q 0,0.15158 0.00689,0.23771 0.00689,0.0844 0.048231,0.15847 0.037896,0.0689 0.1033526,0.10163 0.067179,0.031 0.2032602,0.031 0.079237,0 0.1653642,-0.0224 0.086127,-0.0241 0.1240232,-0.0396 h 0.017225 z m 1.9998735,0.0172 H 8.6469815 v -1.09554 q 0,-0.13263 -0.015503,-0.24804 -0.015503,-0.11714 -0.056844,-0.18259 -0.043064,-0.0724 -0.1240232,-0.1068 -0.08096,-0.0362 -0.2101504,-0.0362 -0.1326358,0 -0.2773295,0.0654 -0.1446937,0.0655 -0.2773296,0.16709 v 1.4366 H 7.3619637 v -2.68028 H 7.685802 v 0.9698 q 0.1515839,-0.12575 0.313503,-0.19637 0.1619191,-0.0706 0.332451,-0.0706 0.3117804,0 0.4754221,0.18776 0.1636417,0.18776 0.1636417,0.54088 z m 2.2341392,-0.92845 H 9.7873056 q 0,0.17742 0.053399,0.31006 0.053399,0.13091 0.1464162,0.21532 0.089572,0.0827 0.2118733,0.12402 0.124023,0.0413 0.272162,0.0413 0.19637,0 0.394462,-0.0775 0.199815,-0.0792 0.28422,-0.15503 h 0.01722 v 0.35312 q -0.163641,0.0689 -0.334173,0.11541 -0.170532,0.0465 -0.358289,0.0465 -0.4788675,0 -0.7475844,-0.25838 -0.2687169,-0.26011 -0.2687169,-0.73725 0,-0.47198 0.2566591,-0.74931 0.2583816,-0.27733 0.6786822,-0.27733 0.389295,0 0.599445,0.22738 0.211873,0.22737 0.211873,0.64595 z m -0.315225,-0.24805 q -0.0017,-0.25493 -0.129191,-0.39446 -0.125746,-0.13952 -0.384127,-0.13952 -0.260104,0 -0.4151334,0.1533 -0.1533064,0.15331 -0.173977,0.38068 z m 1.805226,1.15928 q -0.0913,0.0241 -0.199816,0.0396 -0.106797,0.0155 -0.191202,0.0155 -0.294555,0 -0.447861,-0.15848 -0.153307,-0.15847 -0.153307,-0.50815 v -1.02319 h -0.218763 v -0.27216 h 0.218763 v -0.55294 h 0.323839 v 0.55294 h 0.668347 v 0.27216 h -0.668347 v 0.87678 q 0,0.15158 0.0069,0.23771 0.0069,0.0844 0.04823,0.15847 0.0379,0.0689 0.103353,0.10163 0.06718,0.031 0.20326,0.031 0.07924,0 0.165364,-0.0224 0.08613,-0.0241 0.124023,-0.0396 h 0.01723 z m 1.886185,0.0172 h -0.322116 v -0.20498 q -0.04306,0.0293 -0.117133,0.0827 -0.07235,0.0517 -0.141248,0.0827 -0.08096,0.0396 -0.186035,0.0655 -0.105075,0.0276 -0.246324,0.0276 -0.260104,0 -0.440971,-0.17225 -0.180867,-0.17226 -0.180867,-0.43925 0,-0.21877 0.09302,-0.35312 0.09474,-0.13609 0.268717,-0.2136 0.1757,-0.0775 0.422023,-0.10508 0.246324,-0.0276 0.528821,-0.0413 v -0.05 q 0,-0.11024 -0.03962,-0.18259 -0.0379,-0.0723 -0.110243,-0.11369 -0.0689,-0.0396 -0.165364,-0.0534 -0.09646,-0.0138 -0.201538,-0.0138 -0.127468,0 -0.28422,0.0344 -0.156751,0.0327 -0.323838,0.0965 h -0.01722 v -0.32901 q 0.09474,-0.0258 0.273884,-0.0568 0.179145,-0.031 0.353122,-0.031 0.20326,0 0.353121,0.0344 0.151584,0.0327 0.261827,0.11369 0.10852,0.0792 0.165364,0.20498 0.05684,0.12575 0.05684,0.31178 z m -0.322116,-0.4737 v -0.53571 q -0.148138,0.009 -0.349676,0.0258 -0.199815,0.0172 -0.316948,0.0499 -0.139526,0.0396 -0.225653,0.12403 -0.08613,0.0827 -0.08613,0.22909 0,0.16537 0.09991,0.24977 0.09991,0.0827 0.30489,0.0827 0.170532,0 0.311781,-0.0654 0.141248,-0.0672 0.261826,-0.1602 z m 2.494245,0.4737 h -1.388371 v -0.26183 h 0.533989 v -1.71909 h -0.533989 v -0.23427 q 0.10852,0 0.232544,-0.0172 0.124023,-0.0189 0.187757,-0.0534 0.07924,-0.0431 0.124023,-0.10852 0.04651,-0.0672 0.0534,-0.17915 h 0.266994 v 2.31165 h 0.523654 z"
       id="text12"
       style="font-size:3.52777px;-inkscape-font-specification:sans-serif;text-align:center;text-anchor:middle;stroke-width:0.264583"
       aria-label="theta1" />
    <path
       d="m 26.155779,267.10478 q -0.09129,0.0241 -0.199815,0.0396 -0.106798,0.0155 -0.191203,0.0155 -0.294555,0 -0.447861,-0.15848 -0.153306,-0.15847 -0.153306,-0.50815 v -1.02319 H 24.94483 v -0.27216 h 0.218764 v -0.55294 h 0.323838 v 0.55294 h 0.668347 v 0.27216 h -0.668347 v 0.87677 q 0,0.15159 0.0069,0.23772 0.0069,0.0844 0.04823,0.15847 0.0379,0.0689 0.103353,0.10163 0.06718,0.031 0.20326,0.031 0.07924,0 0.165364,-0.0224 0.08613,-0.0241 0.124023,-0.0396 h 0.01723 z m 1.999873,0.0172 h -0.323838 v -1.09554 q 0,-0.13263 -0.0155,-0.24805 -0.0155,-0.11713 -0.05684,-0.18258 -0.04306,-0.0724 -0.124023,-0.1068 -0.08096,-0.0362 -0.21015,-0.0362 -0.132636,0 -0.27733,0.0655 -0.144694,0.0655 -0.277329,0.16709 v 1.4366 h -0.323839 v -2.68028 h 0.323839 v 0.96979 q 0.151583,-0.12574 0.313503,-0.19637 0.161919,-0.0706 0.332451,-0.0706 0.31178,0 0.475422,0.18776 0.163641,0.18775 0.163641,0.54087 z m 2.23414,-0.92845 h -1.417654 q 0,0.17742 0.0534,0.31006 0.0534,0.13091 0.146416,0.21531 0.08957,0.0827 0.211873,0.12403 0.124023,0.0413 0.272162,0.0413 0.19637,0 0.394463,-0.0775 0.199815,-0.0792 0.284219,-0.15503 h 0.01723 v 0.35313 q -0.163642,0.0689 -0.334174,0.11541 -0.170531,0.0465 -0.358289,0.0465 -0.478867,0 -0.747584,-0.25839 -0.268717,-0.2601 -0.268717,-0.73724 0,-0.47198 0.256659,-0.74931 0.258382,-0.27733 0.678683,-0.27733 0.389295,0 0.599445,0.22737 0.211873,0.22738 0.211873,0.64596 z m -0.315226,-0.24805 q -0.0017,-0.25493 -0.12919,-0.39446 -0.125746,-0.13953 -0.384128,-0.13953 -0.260104,0 -0.415133,0.15331 -0.153306,0.15331 -0.173977,0.38068 z m 1.805226,1.15927 q -0.09129,0.0241 -0.199815,0.0396 -0.106798,0.0155 -0.191202,0.0155 -0.294555,0 -0.447862,-0.15848 -0.153306,-0.15847 -0.153306,-0.50815 v -1.02319 h -0.218763 v -0.27216 h 0.218763 v -0.55294 h 0.323838 v 0.55294 h 0.668347 v 0.27216 h -0.668347 v 0.87677 q 0,0.15159 0.0069,0.23772 0.0069,0.0844 0.04823,0.15847 0.0379,0.0689 0.103352,0.10163 0.06718,0.031 0.20326,0.031 0.07924,0 0.165365,-0.0224 0.08613,-0.0241 0.124023,-0.0396 h 0.01722 z m 1.886186,0.0172 h -0.322116 v -0.20498 q -0.04306,0.0293 -0.117133,0.0827 -0.07235,0.0517 -0.141249,0.0827 -0.08096,0.0396 -0.186034,0.0655 -0.105076,0.0276 -0.246324,0.0276 -0.260104,0 -0.440971,-0.17226 -0.180868,-0.17225 -0.180868,-0.43924 0,-0.21877 0.09302,-0.35313 0.09474,-0.13608 0.268717,-0.21359 0.175699,-0.0775 0.422023,-0.10508 0.246324,-0.0276 0.528821,-0.0413 v -0.05 q 0,-0.11024 -0.03962,-0.18259 -0.0379,-0.0723 -0.110242,-0.11369 -0.0689,-0.0396 -0.165365,-0.0534 -0.09646,-0.0138 -0.201537,-0.0138 -0.127468,0 -0.28422,0.0344 -0.156751,0.0327 -0.323838,0.0965 h -0.01723 v -0.329 q 0.09474,-0.0258 0.273885,-0.0568 0.179144,-0.031 0.353121,-0.031 0.20326,0 0.353122,0.0345 0.151584,0.0327 0.261826,0.11369 0.108521,0.0792 0.165365,0.20498 0.05684,0.12575 0.05684,0.31178 z m -0.322116,-0.4737 v -0.53571 q -0.148139,0.009 -0.349676,0.0258 -0.199816,0.0172 -0.316949,0.05 -0.139526,0.0396 -0.225653,0.12402 -0.08613,0.0827 -0.08613,0.2291 0,0.16537 0.09991,0.24977 0.09991,0.0827 0.30489,0.0827 0.170532,0 0.31178,-0.0654 0.141249,-0.0672 0.261827,-0.1602 z m 2.699227,-0.24805 h -0.380682 v 0.72175 h -0.330729 v -0.72175 h -1.228174 v -0.39618 l 1.241955,-1.44694 h 0.316948 v 1.56752 h 0.380682 z m -0.711411,-0.2756 v -1.15755 l -0.993908,1.15755 z"
       id="text13"
       style="font-size:3.52777px;-inkscape-font-specification:sans-serif;text-align:center;text-anchor:middle;stroke-width:0.264583"
       aria-label="theta4" />
    <path
       d="m 27.02226,291.83036 q 0.156752,0.17226 0.239434,0.42203 0.08441,0.24977 0.08441,0.56671 0,0.31695 -0.08613,0.56844 -0.0844,0.24977 -0.237711,0.41686 -0.158474,0.17398 -0.375514,0.26183 -0.215318,0.0879 -0.492648,0.0879 -0.270439,0 -0.492647,-0.0896 -0.220486,-0.0896 -0.375515,-0.2601 -0.155029,-0.17053 -0.239434,-0.41858 -0.08268,-0.24804 -0.08268,-0.56672 0,-0.3135 0.08268,-0.56154 0.08268,-0.24977 0.241157,-0.4272 0.151584,-0.1688 0.375514,-0.25838 0.225653,-0.0896 0.490925,-0.0896 0.275607,0 0.49437,0.0913 0.220486,0.0896 0.373792,0.25665 z m -0.03101,0.98874 q 0,-0.49953 -0.223931,-0.76997 -0.223931,-0.27216 -0.611503,-0.27216 -0.391018,0 -0.614948,0.27216 -0.222209,0.27044 -0.222209,0.76997 0,0.50471 0.227376,0.77343 0.227376,0.26699 0.609781,0.26699 0.382405,0 0.608058,-0.26699 0.227376,-0.26872 0.227376,-0.77343 z m 2.46496,1.28158 h -0.323838 v -0.2136 q -0.163642,0.12919 -0.313503,0.19809 -0.149862,0.0689 -0.330729,0.0689 -0.303167,0 -0.471977,-0.18432 -0.168809,-0.18603 -0.168809,-0.54432 v -1.24884 h 0.323838 v 1.09553 q 0,0.14642 0.01378,0.2515 0.01378,0.10335 0.05857,0.17742 0.04651,0.0758 0.120578,0.11024 0.07407,0.0344 0.215318,0.0344 0.125746,0 0.273885,-0.0655 0.149861,-0.0654 0.279052,-0.16708 v -1.4366 h 0.323838 z m 1.636417,-0.0172 q -0.09129,0.0241 -0.199815,0.0396 -0.106798,0.0155 -0.191203,0.0155 -0.294555,0 -0.447861,-0.15847 -0.153307,-0.15847 -0.153307,-0.50815 v -1.02319 h -0.218763 v -0.27216 h 0.218763 v -0.55294 h 0.323839 v 0.55294 h 0.668347 v 0.27216 h -0.668347 v 0.87677 q 0,0.15159 0.0069,0.23771 0.0069,0.0844 0.04823,0.15848 0.0379,0.0689 0.103353,0.10163 0.06718,0.031 0.20326,0.031 0.07924,0 0.165364,-0.0224 0.08613,-0.0241 0.124023,-0.0396 h 0.01723 z m 2.084278,-0.96807 q 0,0.23427 -0.06718,0.42892 -0.06718,0.19292 -0.189479,0.32728 -0.113688,0.12747 -0.268717,0.19809 -0.153307,0.0689 -0.325561,0.0689 -0.149861,0 -0.272162,-0.0327 -0.120578,-0.0327 -0.246324,-0.10163 v 0.80615 h -0.323838 v -2.63377 h 0.323838 v 0.20153 q 0.129191,-0.10852 0.289388,-0.18086 0.161919,-0.0741 0.344508,-0.0741 0.347954,0 0.540879,0.26355 0.194648,0.26182 0.194648,0.72863 z m -0.334174,0.009 q 0,-0.34796 -0.118855,-0.52021 -0.118856,-0.17226 -0.36518,-0.17226 -0.139526,0 -0.280774,0.0603 -0.141249,0.0603 -0.27044,0.15848 v 1.09037 q 0.137804,0.062 0.235989,0.0844 0.09991,0.0224 0.225653,0.0224 0.270439,0 0.422023,-0.18259 0.151584,-0.18259 0.151584,-0.54087 z m 2.433955,0.97668 h -0.323838 v -0.2136 q -0.163642,0.12919 -0.313503,0.19809 -0.149862,0.0689 -0.330729,0.0689 -0.303168,0 -0.471977,-0.18432 -0.168809,-0.18603 -0.168809,-0.54432 v -1.24884 h 0.323838 v 1.09553 q 0,0.14642 0.01378,0.2515 0.01378,0.10335 0.05857,0.17742 0.04651,0.0758 0.120578,0.11024 0.07407,0.0344 0.215318,0.0344 0.125746,0 0.273884,-0.0655 0.149862,-0.0654 0.279053,-0.16708 v -1.4366 h 0.323838 z m 1.636417,-0.0172 q -0.0913,0.0241 -0.199815,0.0396 -0.106798,0.0155 -0.191203,0.0155 -0.294555,0 -0.447861,-0.15847 -0.153307,-0.15847 -0.153307,-0.50815 v -1.02319 h -0.218763 v -0.27216 h 0.218763 v -0.55294 h 0.323839 v 0.55294 h 0.668347 v 0.27216 h -0.668347 v 0.87677 q 0,0.15159 0.0069,0.23771 0.0069,0.0844 0.04823,0.15848 0.0379,0.0689 0.103353,0.10163 0.06718,0.031 0.20326,0.031 0.07924,0 0.165364,-0.0224 0.08613,-0.0241 0.124023,-0.0396 h 0.01723 z"
       id="text14"
       style="font-size:3.52777px;-inkscape-font-specification:sans-serif;text-align:center;text-anchor:middle;stroke-width:0.264583"
       aria-label="Output" />
    <path
       d="M 10.614167,278.04988 H 9.6977734 v 2.2617 H 9.3567097 v -2.2617 H 8.4403163 v -0.30316 h 2.1738507 z m 1.174775,0.69074 h -0.01723 q -0.07235,-0.0172 -0.141248,-0.0241 -0.06718,-0.009 -0.160197,-0.009 -0.149861,0 -0.289387,0.0672 -0.139526,0.0654 -0.268717,0.17053 v 1.36597 h -0.323839 v -1.92408 h 0.323839 v 0.28422 q 0.192925,-0.15503 0.339341,-0.21876 0.148139,-0.0655 0.301445,-0.0655 0.08441,0 0.122301,0.005 0.0379,0.003 0.113688,0.0155 z m 0.652844,-0.67523 h -0.365179 v -0.3359 h 0.365179 z m -0.02067,2.24619 h -0.323838 v -1.92408 h 0.323838 z m 2.201411,-0.21876 q 0,0.4892 -0.222208,0.7183 -0.222208,0.2291 -0.68385,0.2291 -0.153306,0 -0.299722,-0.0224 -0.144694,-0.0207 -0.285943,-0.0603 v -0.33073 h 0.01723 q 0.07924,0.031 0.251491,0.0758 0.172255,0.0465 0.344509,0.0465 0.165364,0 0.273884,-0.0396 0.108521,-0.0396 0.16881,-0.11024 0.06029,-0.0672 0.08613,-0.16192 0.02584,-0.0947 0.02584,-0.21187 v -0.1757 q -0.146416,0.11713 -0.280775,0.1757 -0.132635,0.0568 -0.339341,0.0568 -0.344508,0 -0.547769,-0.24805 -0.201537,-0.24976 -0.201537,-0.70279 0,-0.24805 0.0689,-0.42719 0.07062,-0.18087 0.191203,-0.31178 0.111965,-0.12231 0.272162,-0.18948 0.160196,-0.0689 0.31867,-0.0689 0.167087,0 0.279053,0.0345 0.113687,0.0327 0.239433,0.10163 l 0.02067,-0.0827 h 0.303167 z m -0.323838,-0.31006 v -1.04903 q -0.129191,-0.0586 -0.241156,-0.0827 -0.110243,-0.0258 -0.220486,-0.0258 -0.266994,0 -0.4203,0.17915 -0.153307,0.17914 -0.153307,0.52021 0,0.32384 0.113688,0.49092 0.113688,0.16709 0.377237,0.16709 0.141249,0 0.282497,-0.0534 0.142972,-0.0551 0.261827,-0.14642 z"
       id="text15"
       style="font-size:3.52777px;-inkscape-font-specification:sans-serif;text-align:center;text-anchor:middle;stroke-width:0.264583"
       aria-label="Trig" />
    <path
       d="m 4.1631791,250.77144 h -0.916396 v 2.2617 H 2.9057184 v -2.2617 h -0.916396 v -0.30317 h 2.1738567 z m 1.1747782,0.69074 h -0.017226 q -0.072347,-0.0172 -0.141249,-0.0241 -0.067179,-0.009 -0.1601971,-0.009 -0.1498617,0 -0.2893882,0.0672 -0.1395264,0.0655 -0.2687176,0.17053 v 1.36598 H 4.1373407 v -1.92408 h 0.3238392 v 0.28422 q 0.1929255,-0.15503 0.3393421,-0.21877 0.1481392,-0.0654 0.3014461,-0.0654 0.084405,0 0.122301,0.005 0.037896,0.003 0.1136882,0.0155 z m 0.6528461,-0.67524 H 5.6256231 v -0.3359 h 0.3651803 z m -0.020671,2.2462 H 5.6462937 v -1.92408 h 0.3238391 z m 2.2014174,-0.21876 q 0,0.4892 -0.2222088,0.7183 -0.2222088,0.2291 -0.6838519,0.2291 -0.1533068,0 -0.2997235,-0.0224 -0.1446941,-0.0207 -0.2859431,-0.0603 v -0.33073 h 0.017226 q 0.079237,0.031 0.2514921,0.0758 0.1722549,0.0465 0.3445098,0.0465 0.1653647,0 0.2738853,-0.0396 0.1085206,-0.0396 0.1688098,-0.11024 0.060289,-0.0672 0.086127,-0.16192 0.025838,-0.0947 0.025838,-0.21188 v -0.1757 q -0.1464167,0.11714 -0.2807755,0.1757 -0.1326363,0.0568 -0.3393421,0.0568 -0.3445098,0 -0.5477706,-0.24805 -0.2015382,-0.24977 -0.2015382,-0.7028 0,-0.24805 0.068902,-0.42719 0.070625,-0.18087 0.1912029,-0.31178 0.1119657,-0.1223 0.2721627,-0.18948 0.1601971,-0.0689 0.3186715,-0.0689 0.1670873,0 0.279053,0.0345 0.1136882,0.0327 0.2394343,0.10163 l 0.020671,-0.0827 h 0.3031686 z m -0.3238391,-0.31006 v -1.04903 q -0.1291912,-0.0586 -0.2411569,-0.0827 -0.1102431,-0.0258 -0.2204862,-0.0258 -0.2669951,0 -0.420302,0.17914 -0.1533068,0.17915 -0.1533068,0.52021 0,0.32384 0.1136882,0.49093 0.1136882,0.16709 0.3772382,0.16709 0.141249,0 0.282498,-0.0534 0.1429716,-0.0551 0.2618275,-0.14642 z m 4.0910539,-0.20326 q 0,0.14986 -0.07062,0.29628 -0.0689,0.14641 -0.194648,0.24804 -0.137804,0.11025 -0.322116,0.17226 -0.182591,0.062 -0.440973,0.062 -0.27733,0 -0.499539,-0.0517 -0.220486,-0.0517 -0.4495854,-0.1533 v -0.42719 h 0.024116 q 0.1946477,0.16192 0.4495857,0.24977 0.254937,0.0879 0.478868,0.0879 0.316949,0 0.492649,-0.11886 0.177423,-0.11886 0.177423,-0.31695 0,-0.17053 -0.08441,-0.25149 -0.08268,-0.081 -0.253215,-0.12575 -0.129191,-0.0344 -0.280775,-0.0568 -0.149862,-0.0224 -0.318672,-0.0568 -0.341065,-0.0723 -0.506429,-0.24632 -0.1636425,-0.1757 -0.1636425,-0.45648 0,-0.32211 0.2721625,-0.5271 0.272163,-0.2067 0.690742,-0.2067 0.270441,0 0.496094,0.0517 0.225654,0.0517 0.399632,0.12747 v 0.40308 h -0.02412 q -0.146417,-0.12402 -0.385851,-0.20498 -0.237712,-0.0827 -0.487481,-0.0827 -0.273885,0 -0.440973,0.11369 -0.165364,0.11369 -0.165364,0.29284 0,0.16019 0.08268,0.25149 0.08268,0.0913 0.291111,0.13952 0.110243,0.0241 0.313504,0.0586 0.20326,0.0344 0.344509,0.0706 0.285943,0.0758 0.430638,0.22909 0.144694,0.15331 0.144694,0.42892 z m 2.130793,0.73208 h -0.323839 v -1.09554 q 0,-0.13264 -0.0155,-0.24805 -0.0155,-0.11713 -0.05684,-0.18259 -0.04306,-0.0723 -0.124024,-0.10679 -0.08096,-0.0362 -0.210151,-0.0362 -0.132636,0 -0.27733,0.0655 -0.144694,0.0655 -0.277331,0.16709 v 1.4366 h -0.323839 v -2.68028 h 0.323839 v 0.96979 q 0.151585,-0.12574 0.313504,-0.19637 0.16192,-0.0706 0.332452,-0.0706 0.311782,0 0.475424,0.18775 0.163642,0.18776 0.163642,0.54088 z m 2.118734,0 h -0.322116 v -0.20498 q -0.04306,0.0293 -0.117133,0.0827 -0.07235,0.0517 -0.141249,0.0827 -0.08096,0.0396 -0.186036,0.0655 -0.105075,0.0276 -0.246324,0.0276 -0.260105,0 -0.440973,-0.17225 -0.180867,-0.17226 -0.180867,-0.43925 0,-0.21877 0.09302,-0.35313 0.09474,-0.13608 0.268718,-0.21359 0.1757,-0.0775 0.422024,-0.10508 0.246325,-0.0276 0.528823,-0.0413 v -0.0499 q 0,-0.11025 -0.03962,-0.18259 -0.0379,-0.0724 -0.110243,-0.11369 -0.0689,-0.0396 -0.165365,-0.0534 -0.09646,-0.0138 -0.201538,-0.0138 -0.127468,0 -0.28422,0.0344 -0.156752,0.0327 -0.32384,0.0965 h -0.01722 v -0.329 q 0.09474,-0.0258 0.273885,-0.0568 0.179145,-0.031 0.353123,-0.031 0.20326,0 0.353122,0.0345 0.151585,0.0327 0.261828,0.11369 0.10852,0.0792 0.165364,0.20498 0.05684,0.12574 0.05684,0.31178 z m -0.322116,-0.4737 v -0.53571 q -0.148139,0.009 -0.349678,0.0258 -0.199815,0.0172 -0.316949,0.05 -0.139526,0.0396 -0.225653,0.12402 -0.08613,0.0827 -0.08613,0.2291 0,0.16537 0.09991,0.24977 0.09991,0.0827 0.304891,0.0827 0.170532,0 0.311781,-0.0655 0.141249,-0.0672 0.261828,-0.1602 z m 2.638945,-0.5116 q 0,0.23427 -0.06718,0.42892 -0.06718,0.19292 -0.189481,0.32728 -0.113688,0.12747 -0.268717,0.1981 -0.153307,0.0689 -0.325562,0.0689 -0.149862,0 -0.272163,-0.0327 -0.120578,-0.0327 -0.246324,-0.10163 v 0.80615 h -0.32384 v -2.63377 h 0.32384 v 0.20153 q 0.129191,-0.10852 0.289388,-0.18086 0.161919,-0.0741 0.34451,-0.0741 0.347954,0 0.54088,0.26355 0.194648,0.26182 0.194648,0.72863 z m -0.334175,0.009 q 0,-0.34796 -0.118855,-0.52021 -0.118856,-0.17226 -0.365181,-0.17226 -0.139526,0 -0.280775,0.0603 -0.141249,0.0603 -0.27044,0.15848 v 1.09037 q 0.137803,0.062 0.235989,0.0844 0.09991,0.0224 0.225654,0.0224 0.27044,0 0.422024,-0.18259 0.151584,-0.18259 0.151584,-0.54088 z m 2.449465,0.0482 h -1.417658 q 0,0.17742 0.0534,0.31006 0.0534,0.13091 0.146417,0.21532 0.08957,0.0827 0.211873,0.12402 0.124024,0.0413 0.272163,0.0413 0.196371,0 0.394464,-0.0775 0.199815,-0.0792 0.28422,-0.15503 h 0.01723 v 0.35312 q -0.163642,0.0689 -0.334175,0.11541 -0.170532,0.0465 -0.35829,0.0465 -0.478868,0 -0.747586,-0.25838 -0.268718,-0.26011 -0.268718,-0.73725 0,-0.47198 0.25666,-0.74931 0.258382,-0.27733 0.678684,-0.27733 0.389296,0 0.599447,0.22737 0.211874,0.22738 0.211874,0.64596 z m -0.315227,-0.24805 q -0.0017,-0.25494 -0.129191,-0.39446 -0.125746,-0.13953 -0.384128,-0.13953 -0.260105,0 -0.415134,0.15331 -0.153307,0.1533 -0.173978,0.38068 z"
       id="text16"
       style="font-size:3.52778px;-inkscape-font-specification:sans-serif;text-align:center;text-anchor:middle;stroke-width:0.264583"
       aria-label="Trig Shape" />
  </g>
  <g
     inkscape:groupmode="layer"
     id="layer2"
     inkscape:label="components"
     style="display:none">
    <circle
       style="display:inline;opacity:1;vector-effect:none;fill:#ff0000;fill-opacity:1;fill-rule:evenodd;stroke:none;stroke-width:1;stroke-linecap:butt;stroke-linejoin:miter;stroke-miterlimit:4;stroke-dasharray:none;stroke-dashoffset:0;stroke-opacity:1;paint-order:normal"
       id="path2"
       cx="31.115013"
       cy="16.429901"
       r="4"
       inkscape:label="d1_knob" />
    <circle
       r="4"
       cy="77.477875"
       cx="31.64418"
       id="path5"
       style="display:inline;opacity:1;vector-effect:none;fill:#00ff00;fill-opacity:1;fill-rule:evenodd;stroke:none;stroke-width:1;stroke-linecap:butt;stroke-linejoin:miter;stroke-miterlimit:4;stroke-dasharray:none;stroke-dashoffset:0;stroke-opacity:1;paint-order:normal"
       inkscape:label="d1_cv" />
    <circle
       style="display:inline;opacity:1;vector-effect:none;fill:#0000ff;fill-opacity:1;fill-rule:evenodd;stroke:none;stroke-width:1;stroke-linecap:butt;stroke-linejoin:miter;stroke-miterlimit:4;stroke-dasharray:none;stroke-dashoffset:0;stroke-opacity:1;paint-order:normal"
       id="circle4958"
       cx="31.649551"
       cy="117.25447"
       r="4"
       inkscape:label="output" />
    <circle
       style="display:inline;opacity:1;vector-effect:none;fill:#ff0000;fill-opacity:1;fill-rule:evenodd;stroke:none;stroke-width:1;stroke-linecap:butt;stroke-linejoin:miter;stroke-miterlimit:4;stroke-dasharray:none;stroke-dashoffset:0;stroke-opacity:1;paint-order:normal"
       id="path1"
       cx="12.065002"
       cy="16.429901"
       r="4"
       inkscape:label="trig_shape_knob" />
    <circle
       r="4"
       cy="77.477875"
       cx="12.065002"
       id="path4"
       style="display:inline;opacity:1;vector-effect:none;fill:#00ff00;fill-opacity:1;fill-rule:evenodd;stroke:none;stroke-width:1;stroke-linecap:butt;stroke-linejoin:miter;stroke-miterlimit:4;stroke-dasharray:none;stroke-dashoffset:0;stroke-opacity:1;paint-order:normal"
       inkscape:label="trig_shape_cv" />
    <circle
       style="display:inline;vector-effect:none;fill:#ff0000;fill-opacity:1;fill-rule:evenodd;stroke:none;stroke-width:1;stroke-linecap:butt;stroke-linejoin:miter;stroke-miterlimit:4;stroke-dasharray:none;stroke-dashoffset:0;stroke-opacity:1;paint-order:normal"
       id="path3"
       cx="48.354298"
       cy="16.620403"
       r="4"
       inkscape:label="d5_knob" />
    <circle
       r="4"
       cy="77.775444"
       cx="49.172222"
       id="path6"
       style="display:inline;vector-effect:none;fill:#00ff00;fill-opacity:1;fill-rule:evenodd;stroke:none;stroke-width:1;stroke-linecap:butt;stroke-linejoin:miter;stroke-miterlimit:4;stroke-dasharray:none;stroke-dashoffset:0;stroke-opacity:1;paint-order:normal"
       inkscape:label="d5_cv" />
    <circle
       r="4"
       cy="91.257393"
       cx="31.761564"
       id="path5-8"
       style="display:inline;vector-effect:none;fill:#00ff00;fill-opacity:1;fill-rule:evenodd;stroke:none;stroke-width:1;stroke-linecap:butt;stroke-linejoin:miter;stroke-miterlimit:4;stroke-dasharray:none;stroke-dashoffset:0;stroke-opacity:1;paint-order:normal"
       inkscape:label="theta4_cv" />
    <circle
       r="4"
       cy="91.257393"
       cx="12.182385"
       id="path4-5"
       style="display:inline;vector-effect:none;fill:#00ff00;fill-opacity:1;fill-rule:evenodd;stroke:none;stroke-width:1;stroke-linecap:butt;stroke-linejoin:miter;stroke-miterlimit:4;stroke-dasharray:none;stroke-dashoffset:0;stroke-opacity:1;paint-order:normal"
       inkscape:label="theta1_cv" />
    <circle
       cy="104.62086"
       cx="12.182386"
       id="path4-0"
       style="display:inline;vector-effect:none;fill:#00ff00;fill-opacity:1;fill-rule:evenodd;stroke:none;stroke-width:1;stroke-linecap:butt;stroke-linejoin:miter;stroke-miterlimit:4;stroke-dasharray:none;stroke-dashoffset:0;stroke-opacity:1;paint-order:normal"
       inkscape:label="trig_cv"
       r="4" />
    <circle
       style="display:inline;vector-effect:none;fill:#ff0000;fill-opacity:1;fill-rule:evenodd;stroke:none;stroke-width:1;stroke-linecap:butt;stroke-linejoin:miter;stroke-miterlimit:4;stroke-dasharray:none;stroke-dashoffset:0;stroke-opacity:1;paint-order:normal"
       id="path2-8-9"
       cx="31.591904"
       cy="222.17723"
       r="4"
       inkscape:label="extra2_knob"
       transform="translate(0,-168.49998)" />
    <circle
       style="display:inline;vector-effect:none;fill:#ff0000;fill-opacity:1;fill-rule:evenodd;stroke:none;stroke-width:1;stroke-linecap:butt;stroke-linejoin:miter;stroke-miterlimit:4;stroke-dasharray:none;stroke-dashoffset:0;stroke-opacity:1;paint-order:normal"
       id="path1-6-1"
       cx="12.541866"
       cy="222.17723"
       r="4"
       inkscape:label="extra1_knob"
       transform="translate(0,-168.49998)" />
    <circle
       style="display:inline;vector-effect:none;fill:#ff0000;fill-opacity:1;fill-rule:evenodd;stroke:none;stroke-width:1;stroke-linecap:butt;stroke-linejoin:miter;stroke-miterlimit:4;stroke-dasharray:none;stroke-dashoffset:0;stroke-opacity:1;paint-order:normal"
       id="path3-5-7"
       cx="48.831215"
       cy="222.36772"
       r="4"
       inkscape:label="extra3_knob"
       transform="translate(0,-168.49998)" />
    <circle
       style="display:inline;vector-effect:none;fill:#ff0000;fill-opacity:1;fill-rule:evenodd;stroke:none;stroke-width:1;stroke-linecap:butt;stroke-linejoin:miter;stroke-miterlimit:4;stroke-dasharray:none;stroke-dashoffset:0;stroke-opacity:1;paint-order:normal"
       id="path2-8"
       cx="31.319262"
       cy="202.76335"
       r="4"
       inkscape:label="theta4_knob"
       transform="translate(0,-168.49998)" />
    <circle
       style="display:inline;vector-effect:none;fill:#ff0000;fill-opacity:1;fill-rule:evenodd;stroke:none;stroke-width:1;stroke-linecap:butt;stroke-linejoin:miter;stroke-miterlimit:4;stroke-dasharray:none;stroke-dashoffset:0;stroke-opacity:1;paint-order:normal"
       id="path1-6"
       cx="12.269238"
       cy="202.76335"
       r="4"
       inkscape:label="theta1_knob"
       transform="translate(0,-168.49998)" />
  </g>
</svg>
